<?xml version="1.0" encoding="UTF-8" standalone="no"?>
<!DOCTYPE svg PUBLIC "-//W3C//DTD SVG 1.1//EN"
 "http://www.w3.org/Graphics/SVG/1.1/DTD/svg11.dtd">
<!-- Generated by graphviz version 14.1.5 (20260411.2331)
 -->
<!-- Title: taudit Pages: 1 -->
<svg width="1754pt" height="565pt"
 viewBox="0.00 0.00 1754.00 565.00" xmlns="http://www.w3.org/2000/svg" xmlns:xlink="http://www.w3.org/1999/xlink">
<g id="graph0" class="graph" transform="scale(1 1) rotate(0) translate(4 561.4)">
<title>taudit</title>
<polygon fill="white" stroke="none" points="-4,4 -4,-561.4 1750.44,-561.4 1750.44,4 -4,4"/>
<!-- n0 -->
<g id="node1" class="node">
<title>n0</title>
<polygon fill="none" stroke="green" points="1383.4,-482 1020.36,-406.8 1383.4,-331.6 1746.44,-406.8 1383.4,-482"/>
<text xml:space="preserve" text-anchor="middle" x="1383.4" y="-427.8" font-family="Helvetica,sans-Serif" font-size="14.00">GITHUB_TOKEN</text>
<text xml:space="preserve" text-anchor="middle" x="1383.4" y="-411" font-family="Helvetica,sans-Serif" font-size="14.00">zone: FirstParty</text>
<text xml:space="preserve" text-anchor="middle" x="1383.4" y="-394.2" font-family="Helvetica,sans-Serif" font-size="14.00">scope: broad</text>
<text xml:space="preserve" text-anchor="middle" x="1383.4" y="-377.4" font-family="Helvetica,sans-Serif" font-size="14.00">perm: { contents: write, id&#45;token: write, packages: write }</text>
</g>
<!-- n1 -->
<g id="node2" class="node">
<title>n1</title>
<path fill="none" stroke="red" d="M1458.04,-552.2C1458.04,-555.07 1424.59,-557.4 1383.4,-557.4 1342.21,-557.4 1308.76,-555.07 1308.76,-552.2 1308.76,-552.2 1308.76,-505.4 1308.76,-505.4 1308.76,-502.53 1342.21,-500.2 1383.4,-500.2 1424.59,-500.2 1458.04,-502.53 1458.04,-505.4 1458.04,-505.4 1458.04,-552.2 1458.04,-552.2"/>
<path fill="none" stroke="red" d="M1458.04,-552.2C1458.04,-549.33 1424.59,-547 1383.4,-547 1342.21,-547 1308.76,-549.33 1308.76,-552.2"/>
<text xml:space="preserve" text-anchor="middle" x="1383.4" y="-533" font-family="Helvetica,sans-Serif" font-size="14.00">actions/checkout@v4</text>
<text xml:space="preserve" text-anchor="middle" x="1383.4" y="-516.2" font-family="Helvetica,sans-Serif" font-size="14.00">zone: Untrusted</text>
</g>
<!-- n2 -->
<g id="node3" class="node">
<title>n2</title>
<ellipse fill="none" stroke="red" cx="764.98" cy="-524.8" rx="85.6" ry="29.42"/>
<text xml:space="preserve" text-anchor="middle" x="764.98" y="-529" font-family="Helvetica,sans-Serif" font-size="14.00">Checkout source</text>
<text xml:space="preserve" text-anchor="middle" x="764.98" y="-512.2" font-family="Helvetica,sans-Serif" font-size="14.00">zone: Untrusted</text>
</g>
<!-- n2&#45;&gt;n0 -->
<g id="edge2" class="edge">
<title>n2&#45;&gt;n0</title>
<path fill="none" stroke="black" d="M840.34,-510.57C924.48,-494.46 1065.03,-467.55 1181.93,-445.17"/>
<polygon fill="black" stroke="black" points="1182.52,-448.63 1191.68,-443.31 1181.2,-441.75 1182.52,-448.63"/>
<text xml:space="preserve" text-anchor="middle" x="962.71" y="-497.35" font-family="Times,serif" font-size="14.00">has_access_to</text>
</g>
<!-- n2&#45;&gt;n1 -->
<g id="edge1" class="edge">
<title>n2&#45;&gt;n1</title>
<path fill="none" stroke="black" d="M851.04,-525.35C968.51,-526.11 1179.18,-527.48 1296.88,-528.25"/>
<polygon fill="black" stroke="black" points="1296.79,-531.74 1306.81,-528.31 1296.83,-524.74 1296.79,-531.74"/>
<text xml:space="preserve" text-anchor="middle" x="962.71" y="-530.52" font-family="Times,serif" font-size="14.00">uses_image</text>
</g>
<!-- n3 -->
<g id="node4" class="node">
<title>n3</title>
<ellipse fill="none" stroke="green" cx="764.98" cy="-428.8" rx="80.63" ry="29.42"/>
<text xml:space="preserve" text-anchor="middle" x="764.98" y="-433" font-family="Helvetica,sans-Serif" font-size="14.00">Install and build</text>
<text xml:space="preserve" text-anchor="middle" x="764.98" y="-416.2" font-family="Helvetica,sans-Serif" font-size="14.00">zone: FirstParty</text>
</g>
<!-- n3&#45;&gt;n0 -->
<g id="edge3" class="edge">
<title>n3&#45;&gt;n0</title>
<path fill="none" stroke="black" d="M845.62,-425.96C901.49,-423.96 980.25,-421.15 1060.26,-418.3"/>
<polygon fill="black" stroke="black" points="1060.17,-421.8 1070.04,-417.95 1059.92,-414.81 1060.17,-421.8"/>
<text xml:space="preserve" text-anchor="middle" x="962.71" y="-427.1" font-family="Times,serif" font-size="14.00">has_access_to</text>
</g>
<!-- n4 -->
<g id="node5" class="node">
<title>n4</title>
<path fill="none" stroke="red" d="M506.82,-252.2C506.82,-255.07 466.04,-257.4 415.84,-257.4 365.64,-257.4 324.86,-255.07 324.86,-252.2 324.86,-252.2 324.86,-205.4 324.86,-205.4 324.86,-202.53 365.64,-200.2 415.84,-200.2 466.04,-200.2 506.82,-202.53 506.82,-205.4 506.82,-205.4 506.82,-252.2 506.82,-252.2"/>
<path fill="none" stroke="red" d="M506.82,-252.2C506.82,-249.33 466.04,-247 415.84,-247 365.64,-247 324.86,-249.33 324.86,-252.2"/>
<text xml:space="preserve" text-anchor="middle" x="415.84" y="-233" font-family="Helvetica,sans-Serif" font-size="14.00">actions/upload&#45;artifact@v4</text>
<text xml:space="preserve" text-anchor="middle" x="415.84" y="-216.2" font-family="Helvetica,sans-Serif" font-size="14.00">zone: Untrusted</text>
</g>
<!-- n5 -->
<g id="node6" class="node">
<title>n5</title>
<ellipse fill="none" stroke="red" cx="110.38" cy="-309.8" rx="110.38" ry="29.42"/>
<text xml:space="preserve" text-anchor="middle" x="110.38" y="-314" font-family="Helvetica,sans-Serif" font-size="14.00">Upload release bundle</text>
<text xml:space="preserve" text-anchor="middle" x="110.38" y="-297.2" font-family="Helvetica,sans-Serif" font-size="14.00">zone: Untrusted</text>
</g>
<!-- n5&#45;&gt;n0 -->
<g id="edge5" class="edge">
<title>n5&#45;&gt;n0</title>
<path fill="none" stroke="black" d="M193.46,-329.54C232.24,-338.09 279.3,-347.38 322.08,-352.8 459.24,-370.19 799.77,-385.74 1058.22,-395.64"/>
<polygon fill="black" stroke="black" points="1058.05,-399.13 1068.18,-396.02 1058.32,-392.14 1058.05,-399.13"/>
<text xml:space="preserve" text-anchor="middle" x="567.25" y="-378.85" font-family="Times,serif" font-size="14.00">has_access_to</text>
</g>
<!-- n5&#45;&gt;n4 -->
<g id="edge4" class="edge">
<title>n5&#45;&gt;n4</title>
<path fill="none" stroke="black" d="M189.53,-288.94C227.33,-278.85 273.18,-266.61 313.62,-255.82"/>
<polygon fill="black" stroke="black" points="314.37,-259.24 323.13,-253.28 312.57,-252.48 314.37,-259.24"/>
<text xml:space="preserve" text-anchor="middle" x="271.42" y="-278.35" font-family="Times,serif" font-size="14.00">uses_image</text>
</g>
<!-- n6 -->
<g id="node7" class="node">
<title>n6</title>
<polygon fill="none" stroke="red" points="509.6,-309.8 462.72,-343.77 368.96,-343.77 322.08,-309.8 368.96,-275.83 462.72,-275.83 509.6,-309.8"/>
<text xml:space="preserve" text-anchor="middle" x="415.84" y="-314" font-family="Helvetica,sans-Serif" font-size="14.00">release&#45;bundle</text>
<text xml:space="preserve" text-anchor="middle" x="415.84" y="-297.2" font-family="Helvetica,sans-Serif" font-size="14.00">zone: Untrusted</text>
</g>
<!-- n5&#45;&gt;n6 -->
<g id="edge6" class="edge">
<title>n5&#45;&gt;n6</title>
<path fill="none" stroke="black" d="M220.94,-309.8C250.01,-309.8 281.33,-309.8 310.14,-309.8"/>
<polygon fill="black" stroke="black" points="309.96,-313.3 319.96,-309.8 309.96,-306.3 309.96,-313.3"/>
<text xml:space="preserve" text-anchor="middle" x="271.42" y="-314" font-family="Times,serif" font-size="14.00">produces</text>
</g>
<!-- n8 -->
<g id="node9" class="node">
<title>n8</title>
<ellipse fill="none" stroke="red" cx="764.98" cy="-309.8" rx="123.04" ry="29.42"/>
<text xml:space="preserve" text-anchor="middle" x="764.98" y="-314" font-family="Helvetica,sans-Serif" font-size="14.00">Download release bundle</text>
<text xml:space="preserve" text-anchor="middle" x="764.98" y="-297.2" font-family="Helvetica,sans-Serif" font-size="14.00">zone: Untrusted</text>
</g>
<!-- n6&#45;&gt;n8 -->
<g id="edge9" class="edge">
<title>n6&#45;&gt;n8</title>
<path fill="none" stroke="black" d="M510.33,-309.8C547.14,-309.8 590.11,-309.8 630.12,-309.8"/>
<polygon fill="black" stroke="black" points="630.07,-313.3 640.07,-309.8 630.07,-306.3 630.07,-313.3"/>
<text xml:space="preserve" text-anchor="middle" x="567.25" y="-314" font-family="Times,serif" font-size="14.00">consumes</text>
</g>
<!-- n7 -->
<g id="node8" class="node">
<title>n7</title>
<path fill="none" stroke="red" d="M1483.33,-308.2C1483.33,-311.07 1438.54,-313.4 1383.4,-313.4 1328.26,-313.4 1283.47,-311.07 1283.47,-308.2 1283.47,-308.2 1283.47,-261.4 1283.47,-261.4 1283.47,-258.53 1328.26,-256.2 1383.4,-256.2 1438.54,-256.2 1483.33,-258.53 1483.33,-261.4 1483.33,-261.4 1483.33,-308.2 1483.33,-308.2"/>
<path fill="none" stroke="red" d="M1483.33,-308.2C1483.33,-305.33 1438.54,-303 1383.4,-303 1328.26,-303 1283.47,-305.33 1283.47,-308.2"/>
<text xml:space="preserve" text-anchor="middle" x="1383.4" y="-289" font-family="Helvetica,sans-Serif" font-size="14.00">actions/download&#45;artifact@v4</text>
<text xml:space="preserve" text-anchor="middle" x="1383.4" y="-272.2" font-family="Helvetica,sans-Serif" font-size="14.00">zone: Untrusted</text>
</g>
<!-- n8&#45;&gt;n0 -->
<g id="edge8" class="edge">
<title>n8&#45;&gt;n0</title>
<path fill="none" stroke="black" d="M874.96,-323.25C915.07,-328.45 960.83,-334.67 1002.36,-341 1059.14,-349.66 1120.54,-359.9 1177.09,-369.7"/>
<polygon fill="black" stroke="black" points="1176.39,-373.13 1186.84,-371.39 1177.59,-366.23 1176.39,-373.13"/>
<text xml:space="preserve" text-anchor="middle" x="962.71" y="-345.2" font-family="Times,serif" font-size="14.00">has_access_to</text>
</g>
<!-- n8&#45;&gt;n7 -->
<g id="edge7" class="edge">
<title>n8&#45;&gt;n7</title>
<path fill="none" stroke="black" d="M880.02,-298.93C894.5,-297.8 909.12,-296.78 923.06,-296 1042.14,-289.32 1178.81,-286.63 1271.9,-285.54"/>
<polygon fill="black" stroke="black" points="1271.84,-289.04 1281.8,-285.42 1271.76,-282.04 1271.84,-289.04"/>
<text xml:space="preserve" text-anchor="middle" x="962.71" y="-300.2" font-family="Times,serif" font-size="14.00">uses_image</text>
</g>
<!-- n9 -->
<g id="node10" class="node">
<title>n9</title>
<path fill="none" stroke="red" d="M1470.88,-231.2C1470.88,-234.07 1431.67,-236.4 1383.4,-236.4 1335.13,-236.4 1295.92,-234.07 1295.92,-231.2 1295.92,-231.2 1295.92,-184.4 1295.92,-184.4 1295.92,-181.53 1335.13,-179.2 1383.4,-179.2 1431.67,-179.2 1470.88,-181.53 1470.88,-184.4 1470.88,-184.4 1470.88,-231.2 1470.88,-231.2"/>
<path fill="none" stroke="red" d="M1470.88,-231.2C1470.88,-228.33 1431.67,-226 1383.4,-226 1335.13,-226 1295.92,-228.33 1295.92,-231.2"/>
<text xml:space="preserve" text-anchor="middle" x="1383.4" y="-212" font-family="Helvetica,sans-Serif" font-size="14.00">vendor/deploy&#45;action@v2</text>
<text xml:space="preserve" text-anchor="middle" x="1383.4" y="-195.2" font-family="Helvetica,sans-Serif" font-size="14.00">zone: Untrusted</text>
</g>
<!-- n10 -->
<g id="node11" class="node">
<title>n10</title>
<ellipse fill="none" stroke="red" cx="764.98" cy="-140.8" rx="140.07" ry="29.42"/>
<text xml:space="preserve" text-anchor="middle" x="764.98" y="-145" font-family="Helvetica,sans-Serif" font-size="14.00">Third&#45;party production deploy</text>
<text xml:space="preserve" text-anchor="middle" x="764.98" y="-128.2" font-family="Helvetica,sans-Serif" font-size="14.00">zone: Untrusted</text>
</g>
<!-- n10&#45;&gt;n0 -->
<g id="edge11" class="edge">
<title>n10&#45;&gt;n0</title>
<path fill="none" stroke="black" d="M840.62,-165.97C892.48,-186.93 959.69,-221.57 1002.36,-272 1017.83,-290.28 1002.5,-306.84 1020.36,-322.8 1049.17,-348.54 1084.31,-366.83 1121.23,-379.75"/>
<polygon fill="black" stroke="black" points="1119.66,-382.92 1130.26,-382.78 1121.89,-376.28 1119.66,-382.92"/>
<text xml:space="preserve" text-anchor="middle" x="962.71" y="-276.2" font-family="Times,serif" font-size="14.00">has_access_to</text>
</g>
<!-- n10&#45;&gt;n9 -->
<g id="edge10" class="edge">
<title>n10&#45;&gt;n9</title>
<path fill="none" stroke="black" d="M883.01,-156.88C896.51,-158.61 910.08,-160.28 923.06,-161.8 1047.42,-176.34 1191.08,-190.26 1284.15,-198.91"/>
<polygon fill="black" stroke="black" points="1283.74,-202.39 1294.02,-199.82 1284.39,-195.42 1283.74,-202.39"/>
<text xml:space="preserve" text-anchor="middle" x="962.71" y="-174.47" font-family="Times,serif" font-size="14.00">uses_image</text>
</g>
<!-- n11 -->
<g id="node12" class="node">
<title>n11</title>
<polygon fill="none" stroke="green" points="1476.2,-161.6 1290.6,-161.6 1290.6,-120 1476.2,-120 1476.2,-161.6"/>
<text xml:space="preserve" text-anchor="middle" x="1383.4" y="-145" font-family="Helvetica,sans-Serif" font-size="14.00">CLOUD_DEPLOY_TOKEN</text>
<text xml:space="preserve" text-anchor="middle" x="1383.4" y="-128.2" font-family="Helvetica,sans-Serif" font-size="14.00">zone: FirstParty</text>
</g>
<!-- n10&#45;&gt;n11 -->
<g id="edge12" class="edge">
<title>n10&#45;&gt;n11</title>
<path fill="none" stroke="black" d="M905.47,-140.8C1018.95,-140.8 1176.54,-140.8 1278.98,-140.8"/>
<polygon fill="black" stroke="black" points="1278.75,-144.3 1288.75,-140.8 1278.75,-137.3 1278.75,-144.3"/>
<text xml:space="preserve" text-anchor="middle" x="962.71" y="-145" font-family="Times,serif" font-size="14.00">has_access_to</text>
</g>
<!-- n12 -->
<g id="node13" class="node">
<title>n12</title>
<polygon fill="none" stroke="green" points="1444.7,-101.6 1322.1,-101.6 1322.1,-60 1444.7,-60 1444.7,-101.6"/>
<text xml:space="preserve" text-anchor="middle" x="1383.4" y="-85" font-family="Helvetica,sans-Serif" font-size="14.00">PROD_API_KEY</text>
<text xml:space="preserve" text-anchor="middle" x="1383.4" y="-68.2" font-family="Helvetica,sans-Serif" font-size="14.00">zone: FirstParty</text>
</g>
<!-- n10&#45;&gt;n12 -->
<g id="edge13" class="edge">
<title>n10&#45;&gt;n12</title>
<path fill="none" stroke="black" d="M883.43,-124.76C896.79,-123.08 910.21,-121.46 923.06,-120 1059.76,-104.49 1219.99,-92.14 1310.51,-85.69"/>
<polygon fill="black" stroke="black" points="1310.5,-89.2 1320.22,-85 1310,-82.22 1310.5,-89.2"/>
<text xml:space="preserve" text-anchor="middle" x="962.71" y="-124.2" font-family="Times,serif" font-size="14.00">has_access_to</text>
</g>
<!-- n13 -->
<g id="node14" class="node">
<title>n13</title>
<polygon fill="none" stroke="green" points="1451.7,-41.6 1315.1,-41.6 1315.1,0 1451.7,0 1451.7,-41.6"/>
<text xml:space="preserve" text-anchor="middle" x="1383.4" y="-25" font-family="Helvetica,sans-Serif" font-size="14.00">RELEASE_TOKEN</text>
<text xml:space="preserve" text-anchor="middle" x="1383.4" y="-8.2" font-family="Helvetica,sans-Serif" font-size="14.00">zone: FirstParty</text>
</g>
<!-- n10&#45;&gt;n13 -->
<g id="edge14" class="edge">
<title>n10&#45;&gt;n13</title>
<path fill="none" stroke="black" d="M827.41,-114.03C878.14,-93.15 952.57,-65.35 1020.36,-50.8 1116.55,-30.16 1229.94,-23.53 1303.85,-21.51"/>
<polygon fill="black" stroke="black" points="1303.5,-25.02 1313.4,-21.27 1303.32,-18.02 1303.5,-25.02"/>
<text xml:space="preserve" text-anchor="middle" x="962.71" y="-80.83" font-family="Times,serif" font-size="14.00">has_access_to</text>
</g>
</g>
</svg>
