<?xml version="1.0" encoding="UTF-8" standalone="no"?>
<!DOCTYPE svg PUBLIC "-//W3C//DTD SVG 1.1//EN"
 "http://www.w3.org/Graphics/SVG/1.1/DTD/svg11.dtd">
<!-- Generated by graphviz version 14.1.5 (20260411.2331)
 -->
<!-- Title: taudit Pages: 1 -->
<svg width="904pt" height="505pt"
 viewBox="0.00 0.00 904.00 505.00" xmlns="http://www.w3.org/2000/svg" xmlns:xlink="http://www.w3.org/1999/xlink">
<g id="graph0" class="graph" transform="scale(1 1) rotate(0) translate(4 501.4)">
<title>taudit</title>
<polygon fill="white" stroke="none" points="-4,4 -4,-501.4 900.27,-501.4 900.27,4 -4,4"/>
<!-- n0 -->
<g id="node1" class="node">
<title>n0</title>
<polygon fill="none" stroke="green" points="639.81,-345 383.36,-269.8 639.81,-194.6 896.27,-269.8 639.81,-345"/>
<text xml:space="preserve" text-anchor="middle" x="639.81" y="-290.8" font-family="Helvetica,sans-Serif" font-size="14.00">GITHUB_TOKEN</text>
<text xml:space="preserve" text-anchor="middle" x="639.81" y="-274" font-family="Helvetica,sans-Serif" font-size="14.00">zone: FirstParty</text>
<text xml:space="preserve" text-anchor="middle" x="639.81" y="-257.2" font-family="Helvetica,sans-Serif" font-size="14.00">scope: broad</text>
<text xml:space="preserve" text-anchor="middle" x="639.81" y="-240.4" font-family="Helvetica,sans-Serif" font-size="14.00">perm: { contents: read, id&#45;token: write }</text>
</g>
<!-- n1 -->
<g id="node2" class="node">
<title>n1</title>
<path fill="none" stroke="red" d="M714.45,-492.2C714.45,-495.07 681,-497.4 639.81,-497.4 598.63,-497.4 565.17,-495.07 565.17,-492.2 565.17,-492.2 565.17,-445.4 565.17,-445.4 565.17,-442.53 598.63,-440.2 639.81,-440.2 681,-440.2 714.45,-442.53 714.45,-445.4 714.45,-445.4 714.45,-492.2 714.45,-492.2"/>
<path fill="none" stroke="red" d="M714.45,-492.2C714.45,-489.33 681,-487 639.81,-487 598.63,-487 565.17,-489.33 565.17,-492.2"/>
<text xml:space="preserve" text-anchor="middle" x="639.81" y="-473" font-family="Helvetica,sans-Serif" font-size="14.00">actions/checkout@v4</text>
<text xml:space="preserve" text-anchor="middle" x="639.81" y="-456.2" font-family="Helvetica,sans-Serif" font-size="14.00">zone: Untrusted</text>
</g>
<!-- n2 -->
<g id="node3" class="node">
<title>n2</title>
<ellipse fill="none" stroke="red" cx="134.03" cy="-447.8" rx="85.6" ry="29.42"/>
<text xml:space="preserve" text-anchor="middle" x="134.03" y="-452" font-family="Helvetica,sans-Serif" font-size="14.00">Checkout source</text>
<text xml:space="preserve" text-anchor="middle" x="134.03" y="-435.2" font-family="Helvetica,sans-Serif" font-size="14.00">zone: Untrusted</text>
</g>
<!-- n2&#45;&gt;n0 -->
<g id="edge2" class="edge">
<title>n2&#45;&gt;n0</title>
<path fill="none" stroke="black" d="M216.11,-439.14C273.07,-431.55 342.94,-418.75 365.36,-399.8 382.13,-385.63 367.41,-368.89 383.36,-353.8 407.43,-331.03 437.79,-314.42 469.1,-302.32"/>
<polygon fill="black" stroke="black" points="470.16,-305.66 478.33,-298.91 467.73,-299.09 470.16,-305.66"/>
<text xml:space="preserve" text-anchor="middle" x="325.71" y="-430.58" font-family="Times,serif" font-size="14.00">has_access_to</text>
</g>
<!-- n2&#45;&gt;n1 -->
<g id="edge1" class="edge">
<title>n2&#45;&gt;n1</title>
<path fill="none" stroke="black" d="M219.35,-451.31C312.12,-455.18 460.38,-461.36 553.53,-465.25"/>
<polygon fill="black" stroke="black" points="553.24,-468.74 563.38,-465.66 553.53,-461.74 553.24,-468.74"/>
<text xml:space="preserve" text-anchor="middle" x="325.71" y="-461.24" font-family="Times,serif" font-size="14.00">uses_image</text>
</g>
<!-- n3 -->
<g id="node4" class="node">
<title>n3</title>
<path fill="none" stroke="red" d="M721.46,-415.2C721.46,-418.07 684.87,-420.4 639.81,-420.4 594.76,-420.4 558.16,-418.07 558.16,-415.2 558.16,-415.2 558.16,-368.4 558.16,-368.4 558.16,-365.53 594.76,-363.2 639.81,-363.2 684.87,-363.2 721.46,-365.53 721.46,-368.4 721.46,-368.4 721.46,-415.2 721.46,-415.2"/>
<path fill="none" stroke="red" d="M721.46,-415.2C721.46,-412.33 684.87,-410 639.81,-410 594.76,-410 558.16,-412.33 558.16,-415.2"/>
<text xml:space="preserve" text-anchor="middle" x="639.81" y="-396" font-family="Helvetica,sans-Serif" font-size="14.00">actions/setup&#45;node@v4</text>
<text xml:space="preserve" text-anchor="middle" x="639.81" y="-379.2" font-family="Helvetica,sans-Serif" font-size="14.00">zone: Untrusted</text>
</g>
<!-- n4 -->
<g id="node5" class="node">
<title>n4</title>
<ellipse fill="none" stroke="red" cx="134.03" cy="-369.8" rx="81.2" ry="29.42"/>
<text xml:space="preserve" text-anchor="middle" x="134.03" y="-374" font-family="Helvetica,sans-Serif" font-size="14.00">Setup Node</text>
<text xml:space="preserve" text-anchor="middle" x="134.03" y="-357.2" font-family="Helvetica,sans-Serif" font-size="14.00">zone: Untrusted</text>
</g>
<!-- n4&#45;&gt;n0 -->
<g id="edge4" class="edge">
<title>n4&#45;&gt;n0</title>
<path fill="none" stroke="black" d="M205.87,-355.74C275.21,-341.97 383.34,-320.51 474.2,-302.48"/>
<polygon fill="black" stroke="black" points="474.86,-305.91 483.99,-300.53 473.5,-299.05 474.86,-305.91"/>
<text xml:space="preserve" text-anchor="middle" x="325.71" y="-341.65" font-family="Times,serif" font-size="14.00">has_access_to</text>
</g>
<!-- n4&#45;&gt;n3 -->
<g id="edge3" class="edge">
<title>n4&#45;&gt;n3</title>
<path fill="none" stroke="black" d="M215.13,-373.3C305.3,-377.24 451.57,-383.62 546.48,-387.77"/>
<polygon fill="black" stroke="black" points="546.13,-391.26 556.28,-388.2 546.44,-384.26 546.13,-391.26"/>
<text xml:space="preserve" text-anchor="middle" x="325.71" y="-383.68" font-family="Times,serif" font-size="14.00">uses_image</text>
</g>
<!-- n5 -->
<g id="node6" class="node">
<title>n5</title>
<ellipse fill="none" stroke="green" cx="134.03" cy="-269.8" rx="134.03" ry="29.42"/>
<text xml:space="preserve" text-anchor="middle" x="134.03" y="-274" font-family="Helvetica,sans-Serif" font-size="14.00">Extend PATH before deploy</text>
<text xml:space="preserve" text-anchor="middle" x="134.03" y="-257.2" font-family="Helvetica,sans-Serif" font-size="14.00">zone: FirstParty</text>
</g>
<!-- n5&#45;&gt;n0 -->
<g id="edge5" class="edge">
<title>n5&#45;&gt;n0</title>
<path fill="none" stroke="black" d="M268.38,-269.8C300.08,-269.8 335.02,-269.8 370.39,-269.8"/>
<polygon fill="black" stroke="black" points="370.38,-273.3 380.38,-269.8 370.38,-266.3 370.38,-273.3"/>
<text xml:space="preserve" text-anchor="middle" x="325.71" y="-274" font-family="Times,serif" font-size="14.00">has_access_to</text>
</g>
<!-- n6 -->
<g id="node7" class="node">
<title>n6</title>
<path fill="none" stroke="red" d="M742.46,-171.2C742.46,-174.07 696.45,-176.4 639.81,-176.4 583.17,-176.4 537.16,-174.07 537.16,-171.2 537.16,-171.2 537.16,-124.4 537.16,-124.4 537.16,-121.53 583.17,-119.2 639.81,-119.2 696.45,-119.2 742.46,-121.53 742.46,-124.4 742.46,-124.4 742.46,-171.2 742.46,-171.2"/>
<path fill="none" stroke="red" d="M742.46,-171.2C742.46,-168.33 696.45,-166 639.81,-166 583.17,-166 537.16,-168.33 537.16,-171.2"/>
<text xml:space="preserve" text-anchor="middle" x="639.81" y="-152" font-family="Helvetica,sans-Serif" font-size="14.00">cloudflare/wrangler&#45;action@v3</text>
<text xml:space="preserve" text-anchor="middle" x="639.81" y="-135.2" font-family="Helvetica,sans-Serif" font-size="14.00">zone: Untrusted</text>
</g>
<!-- n7 -->
<g id="node8" class="node">
<title>n7</title>
<ellipse fill="none" stroke="red" cx="134.03" cy="-114.8" rx="81.2" ry="29.42"/>
<text xml:space="preserve" text-anchor="middle" x="134.03" y="-119" font-family="Helvetica,sans-Serif" font-size="14.00">Publish docs</text>
<text xml:space="preserve" text-anchor="middle" x="134.03" y="-102.2" font-family="Helvetica,sans-Serif" font-size="14.00">zone: Untrusted</text>
</g>
<!-- n7&#45;&gt;n0 -->
<g id="edge7" class="edge">
<title>n7&#45;&gt;n0</title>
<path fill="none" stroke="black" d="M196.8,-133.81C272.54,-157.11 403.09,-197.28 502.74,-227.93"/>
<polygon fill="black" stroke="black" points="501.47,-231.21 512.06,-230.8 503.53,-224.51 501.47,-231.21"/>
<text xml:space="preserve" text-anchor="middle" x="325.71" y="-187.22" font-family="Times,serif" font-size="14.00">has_access_to</text>
</g>
<!-- n7&#45;&gt;n6 -->
<g id="edge6" class="edge">
<title>n7&#45;&gt;n6</title>
<path fill="none" stroke="black" d="M214.3,-119.99C298.04,-125.48 430.83,-134.18 525.59,-140.38"/>
<polygon fill="black" stroke="black" points="525.23,-143.87 535.44,-141.03 525.69,-136.88 525.23,-143.87"/>
<text xml:space="preserve" text-anchor="middle" x="325.71" y="-133.52" font-family="Times,serif" font-size="14.00">uses_image</text>
</g>
<!-- n8 -->
<g id="node9" class="node">
<title>n8</title>
<polygon fill="none" stroke="green" points="744.28,-101.6 535.35,-101.6 535.35,-60 744.28,-60 744.28,-101.6"/>
<text xml:space="preserve" text-anchor="middle" x="639.81" y="-85" font-family="Helvetica,sans-Serif" font-size="14.00">CLOUDFLARE_ACCOUNT_ID</text>
<text xml:space="preserve" text-anchor="middle" x="639.81" y="-68.2" font-family="Helvetica,sans-Serif" font-size="14.00">zone: FirstParty</text>
</g>
<!-- n7&#45;&gt;n8 -->
<g id="edge8" class="edge">
<title>n7&#45;&gt;n8</title>
<path fill="none" stroke="black" d="M214.3,-109.45C297.51,-103.83 429.14,-94.95 523.77,-88.56"/>
<polygon fill="black" stroke="black" points="523.87,-92.07 533.61,-87.9 523.4,-85.08 523.87,-92.07"/>
<text xml:space="preserve" text-anchor="middle" x="325.71" y="-108" font-family="Times,serif" font-size="14.00">has_access_to</text>
</g>
<!-- n9 -->
<g id="node10" class="node">
<title>n9</title>
<polygon fill="none" stroke="green" points="766.08,-41.6 513.55,-41.6 513.55,0 766.08,0 766.08,-41.6"/>
<text xml:space="preserve" text-anchor="middle" x="639.81" y="-25" font-family="Helvetica,sans-Serif" font-size="14.00">CLOUDFLARE_PAGES_API_TOKEN</text>
<text xml:space="preserve" text-anchor="middle" x="639.81" y="-8.2" font-family="Helvetica,sans-Serif" font-size="14.00">zone: FirstParty</text>
</g>
<!-- n7&#45;&gt;n9 -->
<g id="edge9" class="edge">
<title>n7&#45;&gt;n9</title>
<path fill="none" stroke="black" d="M197.78,-96.11C247.68,-81.87 319.46,-62.73 383.36,-50.8 421.61,-43.66 463.43,-37.9 501.94,-33.42"/>
<polygon fill="black" stroke="black" points="502.2,-36.91 511.74,-32.3 501.41,-29.95 502.2,-36.91"/>
<text xml:space="preserve" text-anchor="middle" x="325.71" y="-76.35" font-family="Times,serif" font-size="14.00">has_access_to</text>
</g>
</g>
</svg>
