<?xml version="1.0" encoding="UTF-8" standalone="no"?>
<!DOCTYPE svg PUBLIC "-//W3C//DTD SVG 1.1//EN"
 "http://www.w3.org/Graphics/SVG/1.1/DTD/svg11.dtd">
<!-- Generated by graphviz version 14.1.5 (20260411.2331)
 -->
<!-- Title: taudit Pages: 1 -->
<svg width="1303pt" height="428pt"
 viewBox="0.00 0.00 1303.00 428.00" xmlns="http://www.w3.org/2000/svg" xmlns:xlink="http://www.w3.org/1999/xlink">
<g id="graph0" class="graph" transform="scale(1 1) rotate(0) translate(4 424.4)">
<title>taudit</title>
<polygon fill="white" stroke="none" points="-4,4 -4,-424.4 1299.07,-424.4 1299.07,4 -4,4"/>
<!-- n0 -->
<g id="node1" class="node">
<title>n0</title>
<polygon fill="none" stroke="green" points="806.76,-345 318.45,-269.8 806.76,-194.6 1295.07,-269.8 806.76,-345"/>
<text xml:space="preserve" text-anchor="middle" x="806.76" y="-290.8" font-family="Helvetica,sans-Serif" font-size="14.00">GITHUB_TOKEN</text>
<text xml:space="preserve" text-anchor="middle" x="806.76" y="-274" font-family="Helvetica,sans-Serif" font-size="14.00">zone: FirstParty</text>
<text xml:space="preserve" text-anchor="middle" x="806.76" y="-257.2" font-family="Helvetica,sans-Serif" font-size="14.00">scope: broad</text>
<text xml:space="preserve" text-anchor="middle" x="806.76" y="-240.4" font-family="Helvetica,sans-Serif" font-size="14.00">perm: { contents: write, id&#45;token: write, packages: write, pull&#45;requests: write }</text>
</g>
<!-- n1 -->
<g id="node2" class="node">
<title>n1</title>
<path fill="none" stroke="red" d="M881.4,-415.2C881.4,-418.07 847.95,-420.4 806.76,-420.4 765.58,-420.4 732.12,-418.07 732.12,-415.2 732.12,-415.2 732.12,-368.4 732.12,-368.4 732.12,-365.53 765.58,-363.2 806.76,-363.2 847.95,-363.2 881.4,-365.53 881.4,-368.4 881.4,-368.4 881.4,-415.2 881.4,-415.2"/>
<path fill="none" stroke="red" d="M881.4,-415.2C881.4,-412.33 847.95,-410 806.76,-410 765.58,-410 732.12,-412.33 732.12,-415.2"/>
<text xml:space="preserve" text-anchor="middle" x="806.76" y="-396" font-family="Helvetica,sans-Serif" font-size="14.00">actions/checkout@v4</text>
<text xml:space="preserve" text-anchor="middle" x="806.76" y="-379.2" font-family="Helvetica,sans-Serif" font-size="14.00">zone: Untrusted</text>
</g>
<!-- n2 -->
<g id="node3" class="node">
<title>n2</title>
<ellipse fill="none" stroke="red" cx="101.57" cy="-370.8" rx="94.41" ry="29.42"/>
<text xml:space="preserve" text-anchor="middle" x="101.57" y="-375" font-family="Helvetica,sans-Serif" font-size="14.00">Checkout PR head</text>
<text xml:space="preserve" text-anchor="middle" x="101.57" y="-358.2" font-family="Helvetica,sans-Serif" font-size="14.00">zone: Untrusted</text>
</g>
<!-- n2&#45;&gt;n0 -->
<g id="edge2" class="edge">
<title>n2&#45;&gt;n0</title>
<path fill="none" stroke="black" d="M188.1,-358.52C275.59,-345.95 416.01,-325.78 540.88,-307.85"/>
<polygon fill="black" stroke="black" points="541.24,-311.33 550.64,-306.44 540.24,-304.4 541.24,-311.33"/>
<text xml:space="preserve" text-anchor="middle" x="260.8" y="-355.68" font-family="Times,serif" font-size="14.00">has_access_to</text>
</g>
<!-- n2&#45;&gt;n1 -->
<g id="edge1" class="edge">
<title>n2&#45;&gt;n1</title>
<path fill="none" stroke="black" d="M195.95,-373.59C333.35,-377.69 588.01,-385.3 720.57,-389.26"/>
<polygon fill="black" stroke="black" points="720.23,-392.75 730.33,-389.55 720.44,-385.75 720.23,-392.75"/>
<text xml:space="preserve" text-anchor="middle" x="260.8" y="-380.63" font-family="Times,serif" font-size="14.00">uses_image</text>
</g>
<!-- n3 -->
<g id="node4" class="node">
<title>n3</title>
<ellipse fill="none" stroke="red" cx="101.57" cy="-269.8" rx="101.57" ry="29.42"/>
<text xml:space="preserve" text-anchor="middle" x="101.57" y="-274" font-family="Helvetica,sans-Serif" font-size="14.00">Install dependencies</text>
<text xml:space="preserve" text-anchor="middle" x="101.57" y="-257.2" font-family="Helvetica,sans-Serif" font-size="14.00">zone: Untrusted</text>
</g>
<!-- n3&#45;&gt;n0 -->
<g id="edge3" class="edge">
<title>n3&#45;&gt;n0</title>
<path fill="none" stroke="black" d="M203.32,-269.8C232.79,-269.8 267.16,-269.8 304.27,-269.8"/>
<polygon fill="black" stroke="black" points="303.83,-273.3 313.83,-269.8 303.83,-266.3 303.83,-273.3"/>
<text xml:space="preserve" text-anchor="middle" x="260.8" y="-274" font-family="Times,serif" font-size="14.00">has_access_to</text>
</g>
<!-- n4 -->
<g id="node5" class="node">
<title>n4</title>
<path fill="none" stroke="red" d="M902.02,-171.2C902.02,-174.07 859.32,-176.4 806.76,-176.4 754.2,-176.4 711.5,-174.07 711.5,-171.2 711.5,-171.2 711.5,-124.4 711.5,-124.4 711.5,-121.53 754.2,-119.2 806.76,-119.2 859.32,-119.2 902.02,-121.53 902.02,-124.4 902.02,-124.4 902.02,-171.2 902.02,-171.2"/>
<path fill="none" stroke="red" d="M902.02,-171.2C902.02,-168.33 859.32,-166 806.76,-166 754.2,-166 711.5,-168.33 711.5,-171.2"/>
<text xml:space="preserve" text-anchor="middle" x="806.76" y="-152" font-family="Helvetica,sans-Serif" font-size="14.00">vendor/preview&#45;release@v2</text>
<text xml:space="preserve" text-anchor="middle" x="806.76" y="-135.2" font-family="Helvetica,sans-Serif" font-size="14.00">zone: Untrusted</text>
</g>
<!-- n5 -->
<g id="node6" class="node">
<title>n5</title>
<ellipse fill="none" stroke="red" cx="101.57" cy="-114.8" rx="81.2" ry="29.42"/>
<text xml:space="preserve" text-anchor="middle" x="101.57" y="-119" font-family="Helvetica,sans-Serif" font-size="14.00">Publish preview</text>
<text xml:space="preserve" text-anchor="middle" x="101.57" y="-102.2" font-family="Helvetica,sans-Serif" font-size="14.00">zone: Untrusted</text>
</g>
<!-- n5&#45;&gt;n0 -->
<g id="edge5" class="edge">
<title>n5&#45;&gt;n0</title>
<path fill="none" stroke="black" d="M159.18,-135.95C202.34,-151.46 263.52,-172.11 318.45,-185.8 390.06,-203.64 468.52,-218.98 541.17,-231.47"/>
<polygon fill="black" stroke="black" points="540.37,-234.89 550.81,-233.12 541.54,-227.99 540.37,-234.89"/>
<text xml:space="preserve" text-anchor="middle" x="260.8" y="-183.75" font-family="Times,serif" font-size="14.00">has_access_to</text>
</g>
<!-- n5&#45;&gt;n4 -->
<g id="edge4" class="edge">
<title>n5&#45;&gt;n4</title>
<path fill="none" stroke="black" d="M182.55,-118.55C309.69,-124.52 557.97,-136.17 699.77,-142.83"/>
<polygon fill="black" stroke="black" points="699.39,-146.31 709.54,-143.28 699.72,-139.32 699.39,-146.31"/>
<text xml:space="preserve" text-anchor="middle" x="260.8" y="-127.85" font-family="Times,serif" font-size="14.00">uses_image</text>
</g>
<!-- n6 -->
<g id="node7" class="node">
<title>n6</title>
<polygon fill="none" stroke="green" points="878.93,-101.6 734.59,-101.6 734.59,-60 878.93,-60 878.93,-101.6"/>
<text xml:space="preserve" text-anchor="middle" x="806.76" y="-85" font-family="Helvetica,sans-Serif" font-size="14.00">COMMENT_TOKEN</text>
<text xml:space="preserve" text-anchor="middle" x="806.76" y="-68.2" font-family="Helvetica,sans-Serif" font-size="14.00">zone: FirstParty</text>
</g>
<!-- n5&#45;&gt;n6 -->
<g id="edge6" class="edge">
<title>n5&#45;&gt;n6</title>
<path fill="none" stroke="black" d="M178.06,-104.33C192.35,-102.65 207.19,-101.1 221.15,-100 399.53,-85.97 609.3,-82.16 722.75,-81.14"/>
<polygon fill="black" stroke="black" points="722.61,-84.64 732.58,-81.06 722.55,-77.65 722.61,-84.64"/>
<text xml:space="preserve" text-anchor="middle" x="260.8" y="-104.2" font-family="Times,serif" font-size="14.00">has_access_to</text>
</g>
<!-- n7 -->
<g id="node8" class="node">
<title>n7</title>
<polygon fill="none" stroke="green" points="875.05,-41.6 738.47,-41.6 738.47,0 875.05,0 875.05,-41.6"/>
<text xml:space="preserve" text-anchor="middle" x="806.76" y="-25" font-family="Helvetica,sans-Serif" font-size="14.00">PREVIEW_TOKEN</text>
<text xml:space="preserve" text-anchor="middle" x="806.76" y="-8.2" font-family="Helvetica,sans-Serif" font-size="14.00">zone: FirstParty</text>
</g>
<!-- n5&#45;&gt;n7 -->
<g id="edge7" class="edge">
<title>n5&#45;&gt;n7</title>
<path fill="none" stroke="black" d="M160.78,-94.23C179.91,-87.75 201.34,-80.78 221.15,-75 263.93,-62.52 274.41,-57.58 318.45,-50.8 461.35,-28.82 630.15,-22.81 726.91,-21.25"/>
<polygon fill="black" stroke="black" points="726.89,-24.75 736.83,-21.1 726.78,-17.75 726.89,-24.75"/>
<text xml:space="preserve" text-anchor="middle" x="260.8" y="-79.2" font-family="Times,serif" font-size="14.00">has_access_to</text>
</g>
</g>
</svg>
