<?xml version="1.0" encoding="UTF-8" standalone="no"?>
<!DOCTYPE svg PUBLIC "-//W3C//DTD SVG 1.1//EN"
 "http://www.w3.org/Graphics/SVG/1.1/DTD/svg11.dtd">
<!-- Generated by graphviz version 15.0.0 (20260523.1842)
 -->
<!-- Title: taudit Pages: 1 -->
<svg width="1794pt" height="456pt"
 viewBox="0.00 0.00 1794.00 456.00" xmlns="http://www.w3.org/2000/svg" xmlns:xlink="http://www.w3.org/1999/xlink">
<g id="graph0" class="graph" transform="scale(1 1) rotate(0) translate(4 452)">
<title>taudit</title>
<polygon fill="white" stroke="none" points="-4,4 -4,-452 1789.84,-452 1789.84,4 -4,4"/>
<!-- n0 -->
<g id="node1" class="node">
<title>n0</title>
<polygon fill="none" stroke="green" points="121.84,-234 0,-216 121.84,-198 243.69,-216 121.84,-234"/>
<text xml:space="preserve" text-anchor="middle" x="121.84" y="-211.8" font-family="Helvetica,sans-Serif" font-size="14.00">GITHUB_TOKEN</text>
</g>
<!-- n1 -->
<g id="node2" class="node">
<title>n1</title>
<polygon fill="none" stroke="green" points="588.54,-368 424.95,-350 588.54,-332 752.13,-350 588.54,-368"/>
<text xml:space="preserve" text-anchor="middle" x="588.54" y="-345.8" font-family="Helvetica,sans-Serif" font-size="14.00">GITHUB_TOKEN (build)</text>
</g>
<!-- n2 -->
<g id="node3" class="node">
<title>n2</title>
<path fill="none" stroke="yellow" d="M808.78,-444.73C808.78,-446.53 710.06,-448 588.54,-448 467.02,-448 368.31,-446.53 368.31,-444.73 368.31,-444.73 368.31,-415.27 368.31,-415.27 368.31,-413.47 467.02,-412 588.54,-412 710.06,-412 808.78,-413.47 808.78,-415.27 808.78,-415.27 808.78,-444.73 808.78,-444.73"/>
<path fill="none" stroke="yellow" d="M808.78,-444.73C808.78,-442.92 710.06,-441.45 588.54,-441.45 467.02,-441.45 368.31,-442.92 368.31,-444.73"/>
<text xml:space="preserve" text-anchor="middle" x="588.54" y="-425.8" font-family="Helvetica,sans-Serif" font-size="14.00">actions/checkout@11bd71901bbe5b1630ceea73d27597364c9af683</text>
</g>
<!-- n3 -->
<g id="node4" class="node">
<title>n3</title>
<ellipse fill="none" stroke="yellow" cx="121.84" cy="-417" rx="83.5" ry="18"/>
<text xml:space="preserve" text-anchor="middle" x="121.84" y="-412.8" font-family="Helvetica,sans-Serif" font-size="14.00">Checkout source</text>
</g>
<!-- n3&#45;&gt;n1 -->
<g id="edge2" class="edge">
<title>n3&#45;&gt;n1</title>
<path fill="none" stroke="black" d="M192.41,-406.97C275.7,-394.96 415.05,-374.87 504.06,-362.04"/>
<polygon fill="black" stroke="black" points="504.3,-365.54 513.7,-360.65 503.3,-358.61 504.3,-365.54"/>
<text xml:space="preserve" text-anchor="middle" x="301.34" y="-399.53" font-family="Times,serif" font-size="14.00">has_access_to</text>
</g>
<!-- n3&#45;&gt;n2 -->
<g id="edge1" class="edge">
<title>n3&#45;&gt;n2</title>
<path fill="none" stroke="black" d="M205.12,-419.3C247.8,-420.5 302.29,-422.02 356.67,-423.54"/>
<polygon fill="black" stroke="black" points="356.29,-427.03 366.39,-423.81 356.49,-420.03 356.29,-427.03"/>
<text xml:space="preserve" text-anchor="middle" x="301.34" y="-426.92" font-family="Times,serif" font-size="14.00">uses_image</text>
</g>
<!-- n4 -->
<g id="node5" class="node">
<title>n4</title>
<ellipse fill="none" stroke="green" cx="121.84" cy="-350" rx="78.14" ry="18"/>
<text xml:space="preserve" text-anchor="middle" x="121.84" y="-345.8" font-family="Helvetica,sans-Serif" font-size="14.00">Install and build</text>
</g>
<!-- n4&#45;&gt;n1 -->
<g id="edge3" class="edge">
<title>n4&#45;&gt;n1</title>
<path fill="none" stroke="black" d="M200.36,-350C257.35,-350 337.13,-350 409.48,-350"/>
<polygon fill="black" stroke="black" points="409.05,-353.5 419.05,-350 409.05,-346.5 409.05,-353.5"/>
<text xml:space="preserve" text-anchor="middle" x="301.34" y="-354.2" font-family="Times,serif" font-size="14.00">has_access_to</text>
</g>
<!-- n5 -->
<g id="node6" class="node">
<title>n5</title>
<path fill="none" stroke="yellow" d="M818.1,-237.73C818.1,-239.53 715.21,-241 588.54,-241 461.88,-241 358.99,-239.53 358.99,-237.73 358.99,-237.73 358.99,-208.27 358.99,-208.27 358.99,-206.47 461.88,-205 588.54,-205 715.21,-205 818.1,-206.47 818.1,-208.27 818.1,-208.27 818.1,-237.73 818.1,-237.73"/>
<path fill="none" stroke="yellow" d="M818.1,-237.73C818.1,-235.92 715.21,-234.45 588.54,-234.45 461.88,-234.45 358.99,-235.92 358.99,-237.73"/>
<text xml:space="preserve" text-anchor="middle" x="588.54" y="-218.8" font-family="Helvetica,sans-Serif" font-size="14.00">actions/upload&#45;artifact@b4b15b8c7c6ac21ea08fcf65892d2ee8f75cf882</text>
</g>
<!-- n6 -->
<g id="node7" class="node">
<title>n6</title>
<ellipse fill="none" stroke="yellow" cx="121.84" cy="-270" rx="107.68" ry="18"/>
<text xml:space="preserve" text-anchor="middle" x="121.84" y="-265.8" font-family="Helvetica,sans-Serif" font-size="14.00">Upload release bundle</text>
</g>
<!-- n6&#45;&gt;n1 -->
<g id="edge5" class="edge">
<title>n6&#45;&gt;n1</title>
<path fill="none" stroke="black" d="M198.54,-283.03C284.69,-297.86 424.61,-321.95 511.08,-336.84"/>
<polygon fill="black" stroke="black" points="510.45,-340.28 520.9,-338.53 511.64,-333.38 510.45,-340.28"/>
<text xml:space="preserve" text-anchor="middle" x="301.34" y="-309.41" font-family="Times,serif" font-size="14.00">has_access_to</text>
</g>
<!-- n6&#45;&gt;n5 -->
<g id="edge4" class="edge">
<title>n6&#45;&gt;n5</title>
<path fill="none" stroke="black" d="M200.56,-257.4C220.45,-254.44 241.83,-251.48 261.69,-249.2 289.31,-246.02 318.3,-243.1 347.11,-240.46"/>
<polygon fill="black" stroke="black" points="347.43,-243.94 357.07,-239.56 346.8,-236.97 347.43,-243.94"/>
<text xml:space="preserve" text-anchor="middle" x="301.34" y="-253.4" font-family="Times,serif" font-size="14.00">uses_image</text>
</g>
<!-- n7 -->
<g id="node8" class="node">
<title>n7</title>
<polygon fill="none" stroke="yellow" points="675.06,-277 631.8,-295 545.29,-295 502.03,-277 545.29,-259 631.8,-259 675.06,-277"/>
<text xml:space="preserve" text-anchor="middle" x="588.54" y="-272.8" font-family="Helvetica,sans-Serif" font-size="14.00">release&#45;bundle</text>
</g>
<!-- n6&#45;&gt;n7 -->
<g id="edge6" class="edge">
<title>n6&#45;&gt;n7</title>
<path fill="none" stroke="black" d="M229.92,-270.2C265.28,-270.37 304.82,-270.68 340.99,-271.2 392.01,-271.94 448.96,-273.25 495.26,-274.44"/>
<polygon fill="black" stroke="black" points="494.89,-277.93 504.97,-274.69 495.07,-270.93 494.89,-277.93"/>
<text xml:space="preserve" text-anchor="middle" x="301.34" y="-275.4" font-family="Times,serif" font-size="14.00">produces</text>
</g>
<!-- n10 -->
<g id="node11" class="node">
<title>n10</title>
<ellipse fill="none" stroke="yellow" cx="1045.95" cy="-277" rx="120.02" ry="18"/>
<text xml:space="preserve" text-anchor="middle" x="1045.95" y="-272.8" font-family="Helvetica,sans-Serif" font-size="14.00">Download release bundle</text>
</g>
<!-- n7&#45;&gt;n10 -->
<g id="edge9" class="edge">
<title>n7&#45;&gt;n10</title>
<path fill="none" stroke="black" d="M676.27,-277C743.55,-277 837.89,-277 914.29,-277"/>
<polygon fill="black" stroke="black" points="913.92,-280.5 923.92,-277 913.92,-273.5 913.92,-280.5"/>
<text xml:space="preserve" text-anchor="middle" x="863.7" y="-281.2" font-family="Times,serif" font-size="14.00">consumes</text>
</g>
<!-- n8 -->
<g id="node9" class="node">
<title>n8</title>
<polygon fill="none" stroke="green" points="1541.87,-258 1366.89,-240 1541.87,-222 1716.85,-240 1541.87,-258"/>
<text xml:space="preserve" text-anchor="middle" x="1541.87" y="-235.8" font-family="Helvetica,sans-Serif" font-size="14.00">GITHUB_TOKEN (deploy)</text>
</g>
<!-- n9 -->
<g id="node10" class="node">
<title>n9</title>
<path fill="none" stroke="yellow" d="M1785.84,-311.73C1785.84,-313.53 1676.49,-315 1541.87,-315 1407.25,-315 1297.9,-313.53 1297.9,-311.73 1297.9,-311.73 1297.9,-282.27 1297.9,-282.27 1297.9,-280.47 1407.25,-279 1541.87,-279 1676.49,-279 1785.84,-280.47 1785.84,-282.27 1785.84,-282.27 1785.84,-311.73 1785.84,-311.73"/>
<path fill="none" stroke="yellow" d="M1785.84,-311.73C1785.84,-309.92 1676.49,-308.45 1541.87,-308.45 1407.25,-308.45 1297.9,-309.92 1297.9,-311.73"/>
<text xml:space="preserve" text-anchor="middle" x="1541.87" y="-292.8" font-family="Helvetica,sans-Serif" font-size="14.00">actions/download&#45;artifact@fa0a91b85d4f404e444e00e005971372dc801d16</text>
</g>
<!-- n10&#45;&gt;n8 -->
<g id="edge8" class="edge">
<title>n10&#45;&gt;n8</title>
<path fill="none" stroke="black" d="M1146.92,-266.92C1164.78,-265.25 1183.23,-263.6 1200.59,-262.2 1271.43,-256.48 1350.65,-251.24 1414.82,-247.29"/>
<polygon fill="black" stroke="black" points="1414.94,-250.79 1424.7,-246.69 1414.51,-243.81 1414.94,-250.79"/>
<text xml:space="preserve" text-anchor="middle" x="1240.25" y="-266.4" font-family="Times,serif" font-size="14.00">has_access_to</text>
</g>
<!-- n10&#45;&gt;n9 -->
<g id="edge7" class="edge">
<title>n10&#45;&gt;n9</title>
<path fill="none" stroke="black" d="M1162.44,-281.68C1199.81,-283.19 1242.86,-284.93 1286.22,-286.69"/>
<polygon fill="black" stroke="black" points="1285.9,-290.18 1296.03,-287.09 1286.18,-283.18 1285.9,-290.18"/>
<text xml:space="preserve" text-anchor="middle" x="1240.25" y="-290.6" font-family="Times,serif" font-size="14.00">uses_image</text>
</g>
<!-- n11 -->
<g id="node12" class="node">
<title>n11</title>
<path fill="none" stroke="yellow" d="M1768.71,-140.73C1768.71,-142.53 1667.04,-144 1541.87,-144 1416.7,-144 1315.03,-142.53 1315.03,-140.73 1315.03,-140.73 1315.03,-111.27 1315.03,-111.27 1315.03,-109.47 1416.7,-108 1541.87,-108 1667.04,-108 1768.71,-109.47 1768.71,-111.27 1768.71,-111.27 1768.71,-140.73 1768.71,-140.73"/>
<path fill="none" stroke="yellow" d="M1768.71,-140.73C1768.71,-138.92 1667.04,-137.45 1541.87,-137.45 1416.7,-137.45 1315.03,-138.92 1315.03,-140.73"/>
<text xml:space="preserve" text-anchor="middle" x="1541.87" y="-121.8" font-family="Helvetica,sans-Serif" font-size="14.00">vendor/deploy&#45;action@9f3a5c1b2d7e4f60a8b9c0d1e2f3a4b5c6d7e8f9</text>
</g>
<!-- n12 -->
<g id="node13" class="node">
<title>n12</title>
<ellipse fill="none" stroke="yellow" cx="1045.95" cy="-126" rx="136.64" ry="18"/>
<text xml:space="preserve" text-anchor="middle" x="1045.95" y="-121.8" font-family="Helvetica,sans-Serif" font-size="14.00">Third&#45;party production deploy</text>
</g>
<!-- n12&#45;&gt;n8 -->
<g id="edge11" class="edge">
<title>n12&#45;&gt;n8</title>
<path fill="none" stroke="black" d="M1098.84,-142.98C1128.61,-152.69 1166.68,-165.08 1200.59,-176 1243.8,-189.91 1253.62,-197.02 1297.9,-207 1342.88,-217.14 1393.3,-224.61 1436.5,-229.85"/>
<polygon fill="black" stroke="black" points="1436.05,-233.32 1446.39,-231.02 1436.87,-226.37 1436.05,-233.32"/>
<text xml:space="preserve" text-anchor="middle" x="1240.25" y="-206.59" font-family="Times,serif" font-size="14.00">has_access_to</text>
</g>
<!-- n12&#45;&gt;n11 -->
<g id="edge10" class="edge">
<title>n12&#45;&gt;n11</title>
<path fill="none" stroke="black" d="M1182.9,-126C1220.3,-126 1262,-126 1303.34,-126"/>
<polygon fill="black" stroke="black" points="1303.19,-129.5 1313.19,-126 1303.19,-122.5 1303.19,-129.5"/>
<text xml:space="preserve" text-anchor="middle" x="1240.25" y="-130.2" font-family="Times,serif" font-size="14.00">uses_image</text>
</g>
<!-- n13 -->
<g id="node14" class="node">
<title>n13</title>
<polygon fill="none" stroke="green" points="1634.67,-90 1449.06,-90 1449.06,-54 1634.67,-54 1634.67,-90"/>
<text xml:space="preserve" text-anchor="middle" x="1541.87" y="-67.8" font-family="Helvetica,sans-Serif" font-size="14.00">CLOUD_DEPLOY_TOKEN</text>
</g>
<!-- n12&#45;&gt;n13 -->
<g id="edge12" class="edge">
<title>n12&#45;&gt;n13</title>
<path fill="none" stroke="black" d="M1141.14,-112.68C1160.77,-110.07 1181.34,-107.44 1200.59,-105.2 1280.04,-95.95 1370.13,-87.24 1437.64,-81.06"/>
<polygon fill="black" stroke="black" points="1437.55,-84.59 1447.19,-80.19 1436.92,-77.61 1437.55,-84.59"/>
<text xml:space="preserve" text-anchor="middle" x="1240.25" y="-109.4" font-family="Times,serif" font-size="14.00">has_access_to</text>
</g>
<!-- n14 -->
<g id="node15" class="node">
<title>n14</title>
<polygon fill="none" stroke="green" points="1603.17,-36 1480.57,-36 1480.57,0 1603.17,0 1603.17,-36"/>
<text xml:space="preserve" text-anchor="middle" x="1541.87" y="-13.8" font-family="Helvetica,sans-Serif" font-size="14.00">PROD_API_KEY</text>
</g>
<!-- n12&#45;&gt;n14 -->
<g id="edge13" class="edge">
<title>n12&#45;&gt;n14</title>
<path fill="none" stroke="black" d="M1099.21,-109.02C1128.92,-99.37 1166.83,-87.08 1200.59,-76.2 1243.82,-62.27 1253.49,-54.49 1297.9,-45 1354.67,-32.87 1420.14,-26 1468.81,-22.22"/>
<polygon fill="black" stroke="black" points="1468.95,-25.72 1478.66,-21.49 1468.43,-18.74 1468.95,-25.72"/>
<text xml:space="preserve" text-anchor="middle" x="1240.25" y="-80.4" font-family="Times,serif" font-size="14.00">has_access_to</text>
</g>
<!-- n15 -->
<g id="node16" class="node">
<title>n15</title>
<polygon fill="none" stroke="green" points="1610.17,-198 1473.57,-198 1473.57,-162 1610.17,-162 1610.17,-198"/>
<text xml:space="preserve" text-anchor="middle" x="1541.87" y="-175.8" font-family="Helvetica,sans-Serif" font-size="14.00">RELEASE_TOKEN</text>
</g>
<!-- n12&#45;&gt;n15 -->
<g id="edge14" class="edge">
<title>n12&#45;&gt;n15</title>
<path fill="none" stroke="black" d="M1140.31,-139.36C1160.19,-142.03 1181.07,-144.72 1200.59,-147 1290.08,-157.45 1393.09,-167.11 1462.11,-173.24"/>
<polygon fill="black" stroke="black" points="1461.54,-176.71 1471.81,-174.1 1462.16,-169.73 1461.54,-176.71"/>
<text xml:space="preserve" text-anchor="middle" x="1240.25" y="-159.43" font-family="Times,serif" font-size="14.00">has_access_to</text>
</g>
</g>
</svg>
