<?xml version="1.0" encoding="UTF-8" standalone="no"?>
<!DOCTYPE svg PUBLIC "-//W3C//DTD SVG 1.1//EN"
 "http://www.w3.org/Graphics/SVG/1.1/DTD/svg11.dtd">
<!-- Generated by graphviz version 15.0.0 (20260523.1842)
 -->
<!-- Title: taudit Pages: 1 -->
<svg width="1254pt" height="471pt"
 viewBox="0.00 0.00 1254.00 471.00" xmlns="http://www.w3.org/2000/svg" xmlns:xlink="http://www.w3.org/1999/xlink">
<g id="graph0" class="graph" transform="scale(1 1) rotate(0) translate(4 467)">
<title>taudit</title>
<polygon fill="white" stroke="none" points="-4,4 -4,-467 1250.21,-467 1250.21,4 -4,4"/>
<!-- n0 -->
<g id="node1" class="node">
<title>n0</title>
<polygon fill="none" stroke="green" points="1124.37,-343 1002.53,-325 1124.37,-307 1246.21,-325 1124.37,-343"/>
<text xml:space="preserve" text-anchor="middle" x="1124.37" y="-320.8" font-family="Helvetica,sans-Serif" font-size="14.00">GITHUB_TOKEN</text>
</g>
<!-- n1 -->
<g id="node2" class="node">
<title>n1</title>
<path fill="none" stroke="red" d="M1199.01,-459.73C1199.01,-461.53 1165.55,-463 1124.37,-463 1083.18,-463 1049.73,-461.53 1049.73,-459.73 1049.73,-459.73 1049.73,-430.27 1049.73,-430.27 1049.73,-428.47 1083.18,-427 1124.37,-427 1165.55,-427 1199.01,-428.47 1199.01,-430.27 1199.01,-430.27 1199.01,-459.73 1199.01,-459.73"/>
<path fill="none" stroke="red" d="M1199.01,-459.73C1199.01,-457.92 1165.55,-456.45 1124.37,-456.45 1083.18,-456.45 1049.73,-457.92 1049.73,-459.73"/>
<text xml:space="preserve" text-anchor="middle" x="1124.37" y="-440.8" font-family="Helvetica,sans-Serif" font-size="14.00">actions/checkout@v4</text>
</g>
<!-- n2 -->
<g id="node3" class="node">
<title>n2</title>
<ellipse fill="none" stroke="red" cx="750.58" cy="-438" rx="83.5" ry="18"/>
<text xml:space="preserve" text-anchor="middle" x="750.58" y="-433.8" font-family="Helvetica,sans-Serif" font-size="14.00">Checkout source</text>
</g>
<!-- n2&#45;&gt;n0 -->
<g id="edge2" class="edge">
<title>n2&#45;&gt;n0</title>
<path fill="none" stroke="black" d="M804.07,-423.94C851.43,-411.06 922.91,-391.14 984.53,-372 1015.28,-362.44 1049.57,-350.85 1076.37,-341.57"/>
<polygon fill="black" stroke="black" points="1077.27,-344.96 1085.56,-338.37 1074.97,-338.35 1077.27,-344.96"/>
<text xml:space="preserve" text-anchor="middle" x="944.87" y="-399.06" font-family="Times,serif" font-size="14.00">has_access_to</text>
</g>
<!-- n2&#45;&gt;n1 -->
<g id="edge1" class="edge">
<title>n2&#45;&gt;n1</title>
<path fill="none" stroke="black" d="M834.09,-439.55C894.71,-440.69 976.84,-442.24 1038.1,-443.39"/>
<polygon fill="black" stroke="black" points="1037.71,-446.89 1047.77,-443.58 1037.84,-439.89 1037.71,-446.89"/>
<text xml:space="preserve" text-anchor="middle" x="944.87" y="-446.53" font-family="Times,serif" font-size="14.00">uses_image</text>
</g>
<!-- n3 -->
<g id="node4" class="node">
<title>n3</title>
<ellipse fill="none" stroke="green" cx="750.58" cy="-371" rx="78.14" ry="18"/>
<text xml:space="preserve" text-anchor="middle" x="750.58" y="-366.8" font-family="Helvetica,sans-Serif" font-size="14.00">Install and build</text>
</g>
<!-- n3&#45;&gt;n0 -->
<g id="edge3" class="edge">
<title>n3&#45;&gt;n0</title>
<path fill="none" stroke="black" d="M820.21,-362.51C883.68,-354.66 977.97,-342.99 1044.51,-334.76"/>
<polygon fill="black" stroke="black" points="1044.78,-338.25 1054.27,-333.55 1043.92,-331.3 1044.78,-338.25"/>
<text xml:space="preserve" text-anchor="middle" x="944.87" y="-354.95" font-family="Times,serif" font-size="14.00">has_access_to</text>
</g>
<!-- n4 -->
<g id="node5" class="node">
<title>n4</title>
<path fill="none" stroke="red" d="M498.63,-239.73C498.63,-241.53 457.85,-243 407.65,-243 357.45,-243 316.67,-241.53 316.67,-239.73 316.67,-239.73 316.67,-210.27 316.67,-210.27 316.67,-208.47 357.45,-207 407.65,-207 457.85,-207 498.63,-208.47 498.63,-210.27 498.63,-210.27 498.63,-239.73 498.63,-239.73"/>
<path fill="none" stroke="red" d="M498.63,-239.73C498.63,-237.92 457.85,-236.45 407.65,-236.45 357.45,-236.45 316.67,-237.92 316.67,-239.73"/>
<text xml:space="preserve" text-anchor="middle" x="407.65" y="-220.8" font-family="Helvetica,sans-Serif" font-size="14.00">actions/upload&#45;artifact@v4</text>
</g>
<!-- n5 -->
<g id="node6" class="node">
<title>n5</title>
<ellipse fill="none" stroke="red" cx="107.68" cy="-279" rx="107.68" ry="18"/>
<text xml:space="preserve" text-anchor="middle" x="107.68" y="-274.8" font-family="Helvetica,sans-Serif" font-size="14.00">Upload release bundle</text>
</g>
<!-- n5&#45;&gt;n0 -->
<g id="edge5" class="edge">
<title>n5&#45;&gt;n0</title>
<path fill="none" stroke="black" d="M181.69,-292.49C198.61,-295.29 216.57,-297.99 233.35,-300 270.21,-304.42 279.59,-304.23 316.67,-306 555.98,-317.43 835.57,-322.07 994.82,-323.89"/>
<polygon fill="black" stroke="black" points="994.52,-327.38 1004.56,-324 994.6,-320.38 994.52,-327.38"/>
<text xml:space="preserve" text-anchor="middle" x="556.29" y="-320.27" font-family="Times,serif" font-size="14.00">has_access_to</text>
</g>
<!-- n5&#45;&gt;n4 -->
<g id="edge4" class="edge">
<title>n5&#45;&gt;n4</title>
<path fill="none" stroke="black" d="M182.33,-265.65C219.35,-258.94 264.79,-250.71 305.07,-243.41"/>
<polygon fill="black" stroke="black" points="305.58,-246.87 314.8,-241.65 304.33,-239.99 305.58,-246.87"/>
<text xml:space="preserve" text-anchor="middle" x="266.01" y="-259.43" font-family="Times,serif" font-size="14.00">uses_image</text>
</g>
<!-- n6 -->
<g id="node7" class="node">
<title>n6</title>
<polygon fill="none" stroke="red" points="494.17,-279 450.91,-297 364.39,-297 321.14,-279 364.39,-261 450.91,-261 494.17,-279"/>
<text xml:space="preserve" text-anchor="middle" x="407.65" y="-274.8" font-family="Helvetica,sans-Serif" font-size="14.00">release&#45;bundle</text>
</g>
<!-- n5&#45;&gt;n6 -->
<g id="edge6" class="edge">
<title>n5&#45;&gt;n6</title>
<path fill="none" stroke="black" d="M215.83,-279C246.16,-279 279.01,-279 308.76,-279"/>
<polygon fill="black" stroke="black" points="308.49,-282.5 318.49,-279 308.49,-275.5 308.49,-282.5"/>
<text xml:space="preserve" text-anchor="middle" x="266.01" y="-283.2" font-family="Times,serif" font-size="14.00">produces</text>
</g>
<!-- n8 -->
<g id="node9" class="node">
<title>n8</title>
<ellipse fill="none" stroke="red" cx="750.58" cy="-279" rx="120.02" ry="18"/>
<text xml:space="preserve" text-anchor="middle" x="750.58" y="-274.8" font-family="Helvetica,sans-Serif" font-size="14.00">Download release bundle</text>
</g>
<!-- n6&#45;&gt;n8 -->
<g id="edge9" class="edge">
<title>n6&#45;&gt;n8</title>
<path fill="none" stroke="black" d="M495.12,-279C532.62,-279 577.34,-279 618.76,-279"/>
<polygon fill="black" stroke="black" points="618.55,-282.5 628.55,-279 618.55,-275.5 618.55,-282.5"/>
<text xml:space="preserve" text-anchor="middle" x="556.29" y="-283.2" font-family="Times,serif" font-size="14.00">consumes</text>
</g>
<!-- n7 -->
<g id="node8" class="node">
<title>n7</title>
<path fill="none" stroke="red" d="M1224.3,-267.73C1224.3,-269.53 1179.51,-271 1124.37,-271 1069.23,-271 1024.44,-269.53 1024.44,-267.73 1024.44,-267.73 1024.44,-238.27 1024.44,-238.27 1024.44,-236.47 1069.23,-235 1124.37,-235 1179.51,-235 1224.3,-236.47 1224.3,-238.27 1224.3,-238.27 1224.3,-267.73 1224.3,-267.73"/>
<path fill="none" stroke="red" d="M1224.3,-267.73C1224.3,-265.92 1179.51,-264.45 1124.37,-264.45 1069.23,-264.45 1024.44,-265.92 1024.44,-267.73"/>
<text xml:space="preserve" text-anchor="middle" x="1124.37" y="-248.8" font-family="Helvetica,sans-Serif" font-size="14.00">actions/download&#45;artifact@v4</text>
</g>
<!-- n8&#45;&gt;n0 -->
<g id="edge8" class="edge">
<title>n8&#45;&gt;n0</title>
<path fill="none" stroke="black" d="M868.06,-283.09C905.39,-285.34 946.81,-288.82 984.53,-294.2 1012.08,-298.13 1042.29,-304.57 1067.48,-310.55"/>
<polygon fill="black" stroke="black" points="1066.65,-313.95 1077.2,-312.9 1068.3,-307.15 1066.65,-313.95"/>
<text xml:space="preserve" text-anchor="middle" x="944.87" y="-298.4" font-family="Times,serif" font-size="14.00">has_access_to</text>
</g>
<!-- n8&#45;&gt;n7 -->
<g id="edge7" class="edge">
<title>n8&#45;&gt;n7</title>
<path fill="none" stroke="black" d="M825.93,-264.63C851.01,-260.41 879.24,-256.36 905.22,-254.2 940.22,-251.3 978.48,-250.34 1013.05,-250.3"/>
<polygon fill="black" stroke="black" points="1012.61,-253.8 1022.62,-250.31 1012.63,-246.8 1012.61,-253.8"/>
<text xml:space="preserve" text-anchor="middle" x="944.87" y="-258.4" font-family="Times,serif" font-size="14.00">uses_image</text>
</g>
<!-- n9 -->
<g id="node10" class="node">
<title>n9</title>
<path fill="none" stroke="red" d="M1211.85,-194.73C1211.85,-196.53 1172.64,-198 1124.37,-198 1076.1,-198 1036.88,-196.53 1036.88,-194.73 1036.88,-194.73 1036.88,-165.27 1036.88,-165.27 1036.88,-163.47 1076.1,-162 1124.37,-162 1172.64,-162 1211.85,-163.47 1211.85,-165.27 1211.85,-165.27 1211.85,-194.73 1211.85,-194.73"/>
<path fill="none" stroke="red" d="M1211.85,-194.73C1211.85,-192.92 1172.64,-191.45 1124.37,-191.45 1076.1,-191.45 1036.88,-192.92 1036.88,-194.73"/>
<text xml:space="preserve" text-anchor="middle" x="1124.37" y="-175.8" font-family="Helvetica,sans-Serif" font-size="14.00">vendor/deploy&#45;action@v2</text>
</g>
<!-- n10 -->
<g id="node11" class="node">
<title>n10</title>
<ellipse fill="none" stroke="red" cx="750.58" cy="-126" rx="136.64" ry="18"/>
<text xml:space="preserve" text-anchor="middle" x="750.58" y="-121.8" font-family="Helvetica,sans-Serif" font-size="14.00">Third&#45;party production deploy</text>
</g>
<!-- n10&#45;&gt;n0 -->
<g id="edge11" class="edge">
<title>n10&#45;&gt;n0</title>
<path fill="none" stroke="black" d="M801.46,-143.09C861.79,-164.62 958.52,-202.2 984.53,-230.2 1000.54,-247.44 985.97,-263.28 1002.53,-280 1017.21,-294.83 1037.23,-304.83 1056.75,-311.54"/>
<polygon fill="black" stroke="black" points="1055.47,-314.81 1066.06,-314.49 1057.58,-308.14 1055.47,-314.81"/>
<text xml:space="preserve" text-anchor="middle" x="944.87" y="-234.4" font-family="Times,serif" font-size="14.00">has_access_to</text>
</g>
<!-- n10&#45;&gt;n9 -->
<g id="edge10" class="edge">
<title>n10&#45;&gt;n9</title>
<path fill="none" stroke="black" d="M844.44,-139.49C899.47,-147.48 969.16,-157.6 1025.12,-165.73"/>
<polygon fill="black" stroke="black" points="1024.58,-169.19 1034.98,-167.16 1025.58,-162.26 1024.58,-169.19"/>
<text xml:space="preserve" text-anchor="middle" x="944.87" y="-163.62" font-family="Times,serif" font-size="14.00">uses_image</text>
</g>
<!-- n11 -->
<g id="node12" class="node">
<title>n11</title>
<polygon fill="none" stroke="green" points="1217.17,-144 1031.57,-144 1031.57,-108 1217.17,-108 1217.17,-144"/>
<text xml:space="preserve" text-anchor="middle" x="1124.37" y="-121.8" font-family="Helvetica,sans-Serif" font-size="14.00">CLOUD_DEPLOY_TOKEN</text>
</g>
<!-- n10&#45;&gt;n11 -->
<g id="edge12" class="edge">
<title>n10&#45;&gt;n11</title>
<path fill="none" stroke="black" d="M887.65,-126C931.33,-126 978.98,-126 1019.93,-126"/>
<polygon fill="black" stroke="black" points="1019.78,-129.5 1029.78,-126 1019.78,-122.5 1019.78,-129.5"/>
<text xml:space="preserve" text-anchor="middle" x="944.87" y="-130.2" font-family="Times,serif" font-size="14.00">has_access_to</text>
</g>
<!-- n12 -->
<g id="node13" class="node">
<title>n12</title>
<polygon fill="none" stroke="green" points="1185.67,-90 1063.07,-90 1063.07,-54 1185.67,-54 1185.67,-90"/>
<text xml:space="preserve" text-anchor="middle" x="1124.37" y="-67.8" font-family="Helvetica,sans-Serif" font-size="14.00">PROD_API_KEY</text>
</g>
<!-- n10&#45;&gt;n12 -->
<g id="edge13" class="edge">
<title>n10&#45;&gt;n12</title>
<path fill="none" stroke="black" d="M844.44,-112.51C908.59,-103.19 992.66,-90.98 1051.67,-82.41"/>
<polygon fill="black" stroke="black" points="1051.87,-85.92 1061.26,-81.02 1050.86,-78.99 1051.87,-85.92"/>
<text xml:space="preserve" text-anchor="middle" x="944.87" y="-106.43" font-family="Times,serif" font-size="14.00">has_access_to</text>
</g>
<!-- n13 -->
<g id="node14" class="node">
<title>n13</title>
<polygon fill="none" stroke="green" points="1192.67,-36 1056.07,-36 1056.07,0 1192.67,0 1192.67,-36"/>
<text xml:space="preserve" text-anchor="middle" x="1124.37" y="-13.8" font-family="Helvetica,sans-Serif" font-size="14.00">RELEASE_TOKEN</text>
</g>
<!-- n10&#45;&gt;n13 -->
<g id="edge14" class="edge">
<title>n10&#45;&gt;n13</title>
<path fill="none" stroke="black" d="M798.39,-108.73C828.69,-97.77 869.1,-83.56 905.22,-72.2 948.06,-58.73 958.98,-55.94 1002.53,-45 1016.1,-41.59 1030.58,-38.17 1044.64,-34.96"/>
<polygon fill="black" stroke="black" points="1045.33,-38.39 1054.31,-32.77 1043.79,-31.56 1045.33,-38.39"/>
<text xml:space="preserve" text-anchor="middle" x="944.87" y="-76.4" font-family="Times,serif" font-size="14.00">has_access_to</text>
</g>
</g>
</svg>
